<svg xmlns="http://www.w3.org/2000/svg" viewBox="0 0 24 24" width="24" height="24" fill="currentColor">
  <path d="M12 3.172l-9.172 9.172c-.39.39-.586.902-.586 1.414s.196 1.024.586 1.414c.78.78 2.048.78 2.828 0L12 6.414l6.344 6.344c.78.78 2.048.78 2.828 0s.586-2.048-.586-2.828L12 3.172zm-7 9.242v7.586c0 1.104.896 2 2 2h4c1.104 0 2-.896 2-2v-4h4v4c0 1.104.896 2 2 2h4c1.104 0 2-.896 2-2v-7.586c0-.53-.21-1.039-.586-1.414l-9.172-9.172c-.78-.78-2.048-.78-2.828 0L4.586 10c-.39.39-.586.902-.586 1.414z"/>
</svg>
