<svg xmlns="http://www.w3.org/2000/svg" role="img" viewBox="0 0 24 24" aria-label="Spotify" height="32" width="32">
  <title>Spotify</title>
  <path d="M12 0C5.371 0 0 5.371 0 12c0 6.629 5.371 12 12 12s12-5.371 12-12c0-6.629-5.371-12-12-12zm5.328 17.556a.75.75 0 0 1-1.032.27c-2.834-1.73-6.404-2.12-10.623-1.161a.75.75 0 1 1-.346-1.457c4.577-1.087 8.508-.642 11.672 1.276a.75.75 0 0 1 .27 1.032zm1.527-3.394a.938.938 0 0 1-1.287.339c-3.248-1.984-8.19-2.56-11.958-1.397a.938.938 0 1 1-.581-1.775c4.25-1.39 9.77-.753 13.51 1.646.444.271.583.865.316 1.287zm.227-3.42c-3.712-2.29-9.327-2.511-12.802-1.376a1.125 1.125 0 1 1-.694-2.13c4.006-1.308 10.083-1.066 14.268 1.576a1.125 1.125 0 1 1-1.168 1.93z"/>
</svg>
